<svg width="150" height="40" fill="none" xmlns="http://www.w3.org/2000/svg"><path d="M6 20C6 8.954 14.954 0 26 0h98c11.046 0 20 8.954 20 20s-8.954 20-20 20H26C14.954 40 6 31.046 6 20z" fill="#4C4471"/><path d="M61.667 14c1.229 0 2.213.187 2.952.56.74.374 1.306.868 1.7 1.483.393.615.65 1.314.769 2.098.13.783.197 1.579.197 2.386a8.94 8.94 0 01-.34 2.495 5.741 5.741 0 01-1.02 2.062 4.94 4.94 0 01-1.753 1.392c-.716.337-1.569.506-2.558.506-.787 0-1.42-.06-1.897-.18-.465-.11-.828-.278-1.09-.507a1.673 1.673 0 01-.502-.868 5.337 5.337 0 01-.125-1.23V17.4c0-.518.042-.988.125-1.41.096-.422.275-.778.537-1.067.262-.301.632-.53 1.109-.687.489-.157 1.121-.235 1.896-.235zm.072 11.174c.74 0 1.348-.133 1.825-.398a3.271 3.271 0 001.162-1.085c.287-.446.483-.952.59-1.518.12-.567.18-1.146.18-1.736 0-.543-.042-1.085-.126-1.628a4.146 4.146 0 00-.518-1.5 2.979 2.979 0 00-1.127-1.085c-.49-.277-1.14-.416-1.95-.416-.74 0-1.253.109-1.539.326-.286.216-.43.548-.43.994v6.925c0 .373.132.657.394.85.275.18.787.27 1.539.27zM73.584 17.616c.68 0 1.288.109 1.825.326.536.204.99.5 1.36.886.381.385.673.855.876 1.41.203.554.304 1.175.304 1.862 0 .76-.12 1.44-.358 2.043a4.308 4.308 0 01-.966 1.537 4.137 4.137 0 01-1.467.977 4.827 4.827 0 01-1.842.343c-.728 0-1.372-.127-1.932-.38a4.145 4.145 0 01-1.396-1.03 4.506 4.506 0 01-.84-1.501 5.57 5.57 0 01-.287-1.79c0-.687.108-1.314.322-1.88a4.317 4.317 0 01.948-1.483 4.282 4.282 0 011.503-.976c.585-.23 1.234-.344 1.95-.344zm-.197 7.72c.49 0 .907-.084 1.252-.252.346-.181.627-.416.841-.706a2.67 2.67 0 00.483-.976c.108-.374.161-.76.161-1.157 0-.41-.053-.79-.16-1.14a2.477 2.477 0 00-.466-.94 1.98 1.98 0 00-.805-.614c-.322-.157-.71-.235-1.163-.235-.465 0-.87.078-1.216.235a2.502 2.502 0 00-.877.65c-.226.266-.4.585-.519.959s-.178.777-.178 1.211c0 .88.22 1.598.662 2.152.453.542 1.115.814 1.985.814zM84.111 19.08c-.441 0-.84.073-1.199.218a7.48 7.48 0 00-1.18.65v1.122c0 .482-.006 1.012-.018 1.59l-.036 1.682a19.366 19.366 0 01-.072 1.392 4.24 4.24 0 01-.089.579.663.663 0 01-.125.307.348.348 0 01-.215.145 2.512 2.512 0 01-.34.018c-.143 0-.262-.006-.358-.018a.488.488 0 01-.214-.127.816.816 0 01-.143-.307 3.607 3.607 0 01-.09-.542 20.938 20.938 0 01-.071-.868l-.036-1.175-.036-1.302v-1.23c0-.615.006-1.115.018-1.5.024-.386.06-.73.107-1.031.072-.506.167-.826.287-.958a.617.617 0 01.483-.2c.298 0 .518.085.661.254.156.169.251.446.287.832a5.819 5.819 0 011.413-.922 3.823 3.823 0 011.574-.344c.513 0 .978.12 1.396.361.429.242.78.633 1.055 1.176.167.325.292.687.376 1.085.083.385.143.795.179 1.23l.035.578c.012.18.018.38.018.596.012.205.018.44.018.706v.94c0 .385-.006.747-.018 1.085a4.608 4.608 0 01-.107.886 1.183 1.183 0 01-.268.578c-.132.133-.31.199-.537.199-.549 0-.835-.265-.859-.796v-.452c0-.277-.006-.596-.018-.958 0-.361-.006-.73-.017-1.103 0-.373-.006-.68-.018-.922-.012-.193-.03-.398-.054-.615a6.723 6.723 0 00-.072-.687 5.293 5.293 0 00-.107-.65 3.303 3.303 0 00-.179-.58c-.167-.397-.376-.65-.626-.759a2.003 2.003 0 00-.805-.162zM97.557 26.855c-.19 0-.346-.03-.465-.09a.775.775 0 01-.25-.271 1.183 1.183 0 01-.126-.38 6.164 6.164 0 01-.053-.488 3.65 3.65 0 01-1.163.94c-.465.253-1.061.38-1.789.38-.465 0-.942-.067-1.431-.2a3.59 3.59 0 01-1.306-.722c-.394-.35-.716-.814-.966-1.393-.25-.578-.376-1.307-.376-2.187 0-.687.084-1.332.25-1.935a4.68 4.68 0 01.752-1.573c.346-.458.775-.82 1.288-1.085s1.115-.398 1.807-.398c.608 0 1.15.115 1.628.344.477.217.906.578 1.288 1.085 0-.145.006-.29.018-.434.012-.157.042-.296.09-.416a.672.672 0 01.268-.307c.119-.085.28-.127.483-.127.178 0 .346.072.5.217.156.145.245.458.269.94.036.64.06 1.212.071 1.718.024.506.036 1.03.036 1.573 0 .663-.006 1.272-.018 1.826a32.652 32.652 0 01-.09 1.772c-.023.277-.059.5-.107.669a1.026 1.026 0 01-.143.361.428.428 0 01-.214.145.9.9 0 01-.25.036zm-.966-4.592c0-.627-.095-1.14-.286-1.537-.179-.398-.411-.705-.698-.922a2.294 2.294 0 00-.894-.47 3.544 3.544 0 00-.894-.127c-.43 0-.8.079-1.11.235a2.016 2.016 0 00-.733.651c-.191.265-.334.585-.43.959-.083.361-.125.759-.125 1.193 0 1.06.227 1.844.68 2.35.465.507 1.091.76 1.879.76.465 0 .858-.079 1.18-.235.334-.17.602-.392.805-.67.215-.277.37-.602.465-.976a4.5 4.5 0 00.161-1.211zM102.374 25.608c-.036-.76-.06-1.658-.072-2.694v-3.562a4.358 4.358 0 01-.429.018h-.376c-.214 0-.411-.006-.59-.018a1.283 1.283 0 01-.447-.109.706.706 0 01-.304-.253c-.072-.12-.108-.283-.108-.488 0-.578.43-.868 1.288-.868h.483c.191 0 .352.012.483.036 0-.639.012-1.15.036-1.537.024-.385.066-.68.125-.885.072-.217.161-.356.269-.416a.848.848 0 01.447-.109c.191 0 .346.066.465.2.119.132.209.3.268.505.072.205.114.434.126.687.023.254.035.5.035.742 0 .169-.006.325-.018.47v.361c.167-.048.34-.072.519-.072.179-.012.352-.018.519-.018.441 0 .781.072 1.02.217.238.133.357.356.357.669 0 .193-.041.35-.125.47a.816.816 0 01-.34.253c-.131.06-.292.103-.483.127a8.784 8.784 0 01-.59.018h-.411c-.155 0-.299-.012-.43-.036v1.754c0 .53-.006 1.042-.018 1.536l-.035 1.447c-.012.482-.03.994-.054 1.537a2.8 2.8 0 01-.09.669.83.83 0 01-.161.361.478.478 0 01-.25.163 2.17 2.17 0 01-.304.018.785.785 0 01-.555-.217c-.143-.157-.226-.482-.25-.976zM112.261 23.456c-.417 0-.859-.03-1.324-.09a6.898 6.898 0 01-1.484-.434c.107.735.405 1.29.894 1.663.501.374 1.216.56 2.147.56.334 0 .632-.017.894-.053.274-.049.513-.097.716-.145.202-.06.381-.109.536-.145.155-.048.299-.072.43-.072.167 0 .328.054.483.163.155.096.232.265.232.506a.897.897 0 01-.375.741c-.239.193-.537.35-.895.47-.346.109-.715.181-1.109.217a8.664 8.664 0 01-1.038.073 6.3 6.3 0 01-1.949-.29 4.22 4.22 0 01-1.521-.868 4.1 4.1 0 01-1.002-1.464c-.238-.579-.358-1.254-.358-2.025 0-.748.114-1.41.34-1.989a4.35 4.35 0 01.966-1.465c.406-.397.883-.699 1.431-.904a5.225 5.225 0 011.807-.307c.501 0 .984.066 1.449.199.477.133.895.331 1.253.597.369.265.661.602.876 1.012.227.398.34.868.34 1.41 0 .483-.089.892-.268 1.23a2.091 2.091 0 01-.77.814c-.322.204-.715.355-1.18.451-.453.097-.96.145-1.521.145zm-.125-4.194a3.4 3.4 0 00-.93.126 2.332 2.332 0 00-.823.38 2.12 2.12 0 00-.608.687c-.167.277-.281.627-.34 1.049.453.204.894.349 1.323.433.43.073.883.109 1.36.109.704 0 1.222-.084 1.556-.253.346-.181.519-.5.519-.959 0-.421-.161-.789-.483-1.102-.31-.314-.835-.47-1.574-.47z" fill="#fff"/><path fill-rule="evenodd" clip-rule="evenodd" d="M35 9c3.319 0 6.295 1.47 8.31 3.793A10.961 10.961 0 0146 20c0 6.075-4.925 11-11 11s-11-4.925-11-11c0-2.08.579-4.03 1.584-5.69a.917.917 0 111.569.95 9.12 9.12 0 00-1.32 4.74 9.167 9.167 0 0018.334 0 9.128 9.128 0 00-2.241-6.005 9.143 9.143 0 00-6.897-3.162c-.647-.002-1.275-.003-1.862.133-1.554.36-1.806 2.326-.417 3.076l.988.316.38-1.332a.917.917 0 011.763.504l-.396 1.387.936.3.226-.71a.917.917 0 111.747.555l-.235.74c.343.151.697.349 1.01.606.65.536 1.158 1.379.931 2.511-.13.654-.38 1.177-.728 1.574a2.567 2.567 0 01-.368.345l.038.062c.411.682.47 1.487.189 2.33-.175.525-.474.941-.874 1.24-.39.291-.83.436-1.247.502-.48.075-.98.052-1.44-.008l-.207.744a.917.917 0 01-1.766-.493l.183-.654a25.66 25.66 0 01-.64-.207l-.412-.137-.308 1.077a.917.917 0 01-1.763-.504l.33-1.153-1.22-.407a.917.917 0 11.58-1.74l1.144.382 1.643-5.75-1.116-.358a.906.906 0 01-.13-.053c-2.99-1.495-2.534-5.99 1.006-6.579C33.644 9.024 34.34 9 35 9zm-.019 7.68l-.577 2.02 2.827.828a1.01 1.01 0 00.441-.034.694.694 0 00.322-.21c.1-.115.23-.328.309-.724.061-.308-.031-.515-.3-.737-.312-.257-.783-.447-1.228-.569a.952.952 0 01-.038-.011l-1.756-.562zm1.732 4.606l-2.813-.823-.568 1.99.476.158c.395.132.883.294 1.401.408.6.133 1.174.211 1.616.142a.971.971 0 00.436-.16.67.67 0 00.23-.35c.14-.416.074-.651-.019-.804-.11-.182-.343-.386-.759-.56z" fill="#fff"/></svg>